<?xml version="1.0" encoding="utf-8"?>
<!-- Generator: Adobe Illustrator 18.0.0, SVG Export Plug-In . SVG Version: 6.00 Build 0)  -->
<!DOCTYPE svg PUBLIC "-//W3C//DTD SVG 1.1//EN" "http://www.w3.org/Graphics/SVG/1.1/DTD/svg11.dtd">
<svg version="1.1" id="Livello_1" xmlns="http://www.w3.org/2000/svg" xmlns:xlink="http://www.w3.org/1999/xlink" x="0px" y="0px"
	 width="203.2px" height="26.4px" viewBox="0 0 203.2 26.4" enable-background="new 0 0 203.2 26.4" xml:space="preserve">
<g>
	<path fill="#ffffff" d="M155.2,21.4h-16.4V5h16.4V21.4z M133.9,26.2H160l0,0V0.1h-26.2L133.9,26.2L133.9,26.2z"/>
	<polygon fill="#ffffff" points="4.9,0.1 0,0.1 0,26.2 24.6,26.2 24.6,21.3 4.9,21.3 	"/>
	<rect x="122.4" y="0" fill="#ffffff" width="5.5" height="26.3"/>
	<rect x="198" y="0" fill="#ffffff" width="5.2" height="26.3"/>
	<path fill="#ffffff" d="M51.5,21.2H35.1V5.1h16.4V21.2z M30.2,26.2h26.1l0,0V0.1H30.2V26.2z"/>
	<polygon fill="#ffffff" points="62.4,0.1 62.4,26.2 86.4,26.2 86.4,21.3 67.2,21.3 67.2,4.9 86.4,4.9 86.4,0.1 	"/>
	<polygon fill="#ffffff" points="92.5,0.1 92.5,26.2 116.4,26.2 116.4,21.3 97.3,21.3 97.3,4.9 116.4,4.9 116.4,0.1 	"/>
	<polygon fill="#ffffff" points="192.3,0.1 187.2,0.1 187.3,18.2 171.1,0.1 166.2,0.1 166.2,26.3 171.1,26.3 171.1,8.2 187.5,26.3 
		192.3,26.3 	"/>
</g>
</svg>
